:SAMPLES-PER-SECOND 30
:FULLY-SPECIFIED
:DEGREES
1165
root  43.8283 38.0081 18.3166 -179.937 46.9237 -174.854
RightUpLeg  -13.1878 -14.5008 -2.04838
RightLeg  17.1905 6.80095 5.05485
RightFoot  -5.48943 -0.605437 11.0292
RightToes  1.33877e-009 0 -3.6325e-017
Spine  7.62923 -1.76383 15.6566
Spine1  10.9083 0.584621 -2.98337
HEad  -79.2543 40.7846 -58.7533
LeftShoulder1  0.130417 3.173 -33.3137
LeftArm  -1.43012 -3.4754 -44.6191
LeftForeArm  22.3341 -8.04044 -9.37795
LeftHand  0.029603 6.88034 4.76836
RightShoulder  -0.335686 -4.49507 26.698
RightArm  8.05197 -5.17915 48.195
RightForeArm  6.44882 6.01826 5.41945
RightHand  -0.303238 2.61346 -4.58962
LeftUpLeg  -0.0964626 -4.03844 7.9392
LeftLeg  49.1577 -1.33372 -1.21694
LeftFoot  0.276082 0.515562 -4.9626
LeftToes  -1.45701e-009 4.75788e-011 -4.21586e-011
1166
root  44.6601 38.0972 18.072 -179.954 44.2088 -174.797
RightUpLeg  -11.1599 -15.0037 -2.66736
RightLeg  17.1051 4.61449 5.47865
RightFoot  -8.02088 -0.416824 12.6042
RightToes  1.33877e-009 0 -3.6325e-017
Spine  9.13092 -2.07286 16.9879
Spine1  9.38241 0.607322 -3.01102
HEad  -78.6302 40.0976 -58.5771
LeftShoulder1  0.00669817 3.48693 -33.1076
LeftArm  4.15727 -0.373642 -43.3402
LeftForeArm  15.3578 -13.6017 -8.34061
LeftHand  0.0332881 7.07834 4.51372
RightShoulder  -0.209956 -4.12538 26.192
RightArm  8.08147 -5.606 47.6956
RightForeArm  4.53463 7.31394 5.47223
RightHand  -0.398385 3.25502 -5.60345
LeftUpLeg  -5.18904 -4.78919 8.32491
LeftLeg  55.4719 0.0342833 0.513706
LeftFoot  1.56359 0.257459 -2.30193
LeftToes  -1.45701e-009 4.75788e-011 -4.21586e-011
1167
root  45.5138 38.2317 17.8324 179.394 42.5507 -175.623
RightUpLeg  -9.04756 -14.7882 -3.44816
RightLeg  16.4898 3.14659 5.56862
RightFoot  -10.0178 -0.238913 14.3041
RightToes  1.33877e-009 0 -3.6325e-017
Spine  9.58075 -1.50954 18.4469
Spine1  9.6119 1.82169 -4.69976
HEad  -77.1715 38.5851 -57.5889
LeftShoulder1  0.100968 3.23768 -32.1116
LeftArm  9.59734 1.3393 -43.3511
LeftForeArm  7.10526 -18.4908 -6.36526
LeftHand  0.0554042 7.07759 5.90144
RightShoulder  -0.288057 -4.35263 26.5308
RightArm  7.88056 -4.47022 46.987
RightForeArm  3.87492 8.94763 5.34806
RightHand  -0.404771 2.75354 -5.98862
LeftUpLeg  -9.42529 -4.55106 7.69963
LeftLeg  58.8777 -0.00932593 0.512799
LeftFoot  0.379941 0.145507 -1.45519
LeftToes  -1.45701e-009 4.75788e-011 -4.21586e-011
1168
root  46.3583 38.3775 17.5708 179.494 41.2276 -176.174
RightUpLeg  -7.92946 -13.651 -3.39919
RightLeg  16.0093 0.963356 5.12883
RightFoot  -10.6415 -0.150751 12.7846
RightToes  1.33877e-009 0 -3.6325e-017
Spine  9.25757 -0.657213 19.9381
Spine1  10.0885 3.15916 -6.2571
HEad  -75.191 37.0327 -56.5573
LeftShoulder1  0.270133 2.78645 -31.5434
LeftArm  8.40733 2.99376 -43.4214
LeftForeArm  5.4198 -22.7275 -4.81839
LeftHand  0.0101293 6.0193 6.88862
RightShoulder  -0.442082 -4.79243 27.4027
RightArm  8.48591 -2.42244 45.7819
RightForeArm  1.94958 10.9674 5.3517
RightHand  -0.464909 3.51813 -6.29188
LeftUpLeg  -13.4723 -4.05135 6.95123
LeftLeg  59.3958 -0.838155 -0.970561
LeftFoot  -0.752584 0.17593 -1.84467
LeftToes  -1.45701e-009 4.75788e-011 -4.21586e-011
1169
root  47.1679 38.5229 17.2774 179.014 39.5127 -176.789
RightUpLeg  -6.04825 -12.637 -3.46805
RightLeg  15.2721 -1.27151 4.42991
RightFoot  -11.1962 -0.0909547 11.5624
RightToes  1.33877e-009 0 -3.6325e-017
Spine  10.1565 -0.593792 20.7691
Spine1  8.95495 3.57524 -7.39628
HEad  -73.7087 36.6492 -56.075
LeftShoulder1  0.172562 3.05156 -32.021
LeftArm  5.75939 4.35638 -41.8583
LeftForeArm  5.48821 -27.0979 -5.50213
LeftHand  -0.079624 4.45699 8.00653
RightShoulder  -0.342194 -4.50602 27.0326
RightArm  8.94836 -0.922327 45.7615
RightForeArm  -0.536046 13.6127 5.10303
RightHand  -0.605529 4.16023 -7.62308
LeftUpLeg  -16.3497 -3.75294 5.75216
LeftLeg  57.3855 -1.96529 -2.78818
LeftFoot  -2.06815 0.141778 -1.59402
LeftToes  -1.45701e-009 4.75788e-011 -4.21586e-011
1170
root  47.9817 38.6441 16.951 178.361 37.5817 -177.731
RightUpLeg  -4.10397 -12.8175 -3.96615
RightLeg  14.6322 -2.5184 4.23081
RightFoot  -11.9004 -0.0276988 10.864
RightToes  1.33877e-009 0 -3.6325e-017
Spine  9.95251 -0.253967 21.171
Spine1  9.27131 4.10268 -8.4533
HEad  -71.6348 36.2798 -55.5629
LeftShoulder1  0.257347 2.82573 -31.8697
LeftArm  1.88338 4.96592 -41.7542
LeftForeArm  8.09511 -31.3293 -6.42169
LeftHand  -0.0363274 5.1397 7.84959
RightShoulder  -0.392414 -4.65803 26.9935
RightArm  9.35094 1.3137 45.4813
RightForeArm  -2.3553 17.5542 4.77253
RightHand  -0.704745 4.7892 -8.3244
LeftUpLeg  -18.5129 -3.24959 3.96127
LeftLeg  53.2205 -2.54361 -3.21596
LeftFoot  -3.36538 0.10854 -1.26069
LeftToes  -1.45701e-009 4.75788e-011 -4.21586e-011
1171
root  48.7544 38.7694 16.6048 178.063 35.6331 -178.48
RightUpLeg  -2.57413 -12.8867 -4.18562
RightLeg  14.1463 -4.04185 3.86394
RightFoot  -12.0032 -0.0249855 9.71917
RightToes  1.33877e-009 0 -3.6325e-017
Spine  9.50575 0.103612 21.1979
Spine1  9.52816 4.43107 -9.18077
HEad  -70.0492 35.3689 -54.8751
LeftShoulder1  0.342666 2.59614 -31.6066
LeftArm  -0.825022 4.97574 -41.8055
LeftForeArm  9.90355 -35.5516 -7.44028
LeftHand  -0.0955321 4.2384 7.88633
RightShoulder  -0.360399 -4.58142 26.4201
RightArm  6.97594 3.42566 45.5505
RightForeArm  -1.79377 22.3972 4.88218
RightHand  -0.740082 5.67872 -8.06052
LeftUpLeg  -20.0785 -1.72862 2.11858
LeftLeg  47.1635 -2.51763 -2.48614
LeftFoot  -4.2068 0.0939506 -1.12299
LeftToes  -1.45701e-009 4.75788e-011 -4.21586e-011
1172
root  49.5226 38.8677 16.2772 178.201 33.1886 -178.837
RightUpLeg  -1.34147 -12.6991 -3.88164
RightLeg  13.7339 -6.61873 3.38128
RightFoot  -12.0484 -0.0319536 8.20034
RightToes  1.33877e-009 0 -3.6325e-017
Spine  9.01628 0.35345 20.9811
Spine1  9.32799 4.35355 -9.11801
HEad  -68.3639 34.8848 -54.3386
LeftShoulder1  0.297778 2.72579 -32.458
LeftArm  -1.79235 3.69656 -40.9431
LeftForeArm  10.8658 -39.8813 -8.66898
LeftHand  -0.163233 3.33463 8.62013
RightShoulder  -0.300163 -4.41322 25.6165
RightArm  3.63571 5.33968 45.2805
RightForeArm  -0.121284 28.3752 6.14815
RightHand  -0.786796 6.09072 -8.26971
LeftUpLeg  -21.0397 0.326805 0.504478
LeftLeg  39.3708 -2.83404 -2.13249
LeftFoot  -4.6877 0.141334 -1.9432
LeftToes  -1.45701e-009 4.75788e-011 -4.21586e-011
